<?xml version="1.0" encoding="UTF-8" standalone="no"?>
<!-- Generator: Adobe Illustrator 16.0.0, SVG Export Plug-In . SVG Version: 6.00 Build 0)  -->

<svg
   xmlns:dc="http://purl.org/dc/elements/1.1/"
   xmlns:cc="http://creativecommons.org/ns#"
   xmlns:rdf="http://www.w3.org/1999/02/22-rdf-syntax-ns#"
   xmlns:svg="http://www.w3.org/2000/svg"
   xmlns="http://www.w3.org/2000/svg"
   xmlns:sodipodi="http://sodipodi.sourceforge.net/DTD/sodipodi-0.dtd"
   xmlns:inkscape="http://www.inkscape.org/namespaces/inkscape"
   version="1.1"
   id="Layer_1"
   x="0px"
   y="0px"
   width="230.31496"
   height="230.31496"
   viewBox="0 0 230.31495 230.31496"
   enable-background="new 0 0 219.865 219.872"
   xml:space="preserve"
   inkscape:version="0.48.4 r9939"
   sodipodi:docname="OttoDIY_PCB.svg"><metadata
   id="metadata85"><rdf:RDF><cc:Work
       rdf:about=""><dc:format>image/svg+xml</dc:format><dc:type
         rdf:resource="http://purl.org/dc/dcmitype/StillImage" /><dc:title></dc:title></cc:Work></rdf:RDF></metadata><defs
   id="defs83">
		
		
	
		
		
	
		
		
		
		
	
		
		
	</defs><sodipodi:namedview
   pagecolor="#ffffff"
   bordercolor="#666666"
   borderopacity="1"
   objecttolerance="10"
   gridtolerance="10"
   guidetolerance="10"
   inkscape:pageopacity="0"
   inkscape:pageshadow="2"
   inkscape:window-width="1920"
   inkscape:window-height="1018"
   id="namedview81"
   showgrid="false"
   inkscape:snap-page="true"
   inkscape:snap-bbox="true"
   inkscape:snap-object-midpoints="true"
   inkscape:object-paths="true"
   inkscape:snap-center="true"
   inkscape:snap-bbox-midpoints="true"
   inkscape:snap-bbox-edge-midpoints="true"
   units="mm"
   inkscape:snap-global="false"
   inkscape:zoom="3.0358973"
   inkscape:cx="59.448958"
   inkscape:cy="137.33386"
   inkscape:window-x="-8"
   inkscape:window-y="-8"
   inkscape:window-maximized="1"
   inkscape:current-layer="Layer_1" />
<path
   style="fill:#262261"
   d="M 24.09375 1.75 L 14.25 11.59375 L 14.25 197.5 L 24.0625 207.3125 L 209.65625 207.3125 L 219.8125 197.15625 L 219.8125 11.625 L 209.90625 1.75 L 24.09375 1.75 z M 27.8125 10 C 30.74787 10 33.125 12.377131 33.125 15.3125 C 33.125 18.24787 30.74787 20.625 27.8125 20.625 C 24.87714 20.625 22.5 18.24787 22.5 15.3125 C 22.5 12.377131 24.87714 10 27.8125 10 z M 206.21875 10 C 209.15412 10 211.5625 12.377131 211.5625 15.3125 C 211.5625 18.24787 209.15412 20.625 206.21875 20.625 C 203.28339 20.625 200.90625 18.24787 200.90625 15.3125 C 200.90625 12.377131 203.28339 10 206.21875 10 z M 27.8125 188.4375 C 30.74787 188.4375 33.125 190.81463 33.125 193.75 C 33.125 196.68537 30.74787 199.0625 27.8125 199.0625 C 24.87714 199.0625 22.5 196.68537 22.5 193.75 C 22.5 190.81463 24.87714 188.4375 27.8125 188.4375 z M 206.21875 188.4375 C 209.15412 188.4375 211.5625 190.81463 211.5625 193.75 C 211.5625 196.68537 209.15412 199.0625 206.21875 199.0625 C 203.28339 199.0625 200.90625 196.68537 200.90625 193.75 C 200.90625 190.81463 203.28339 188.4375 206.21875 188.4375 z "
   transform="translate(-5e-6,0)"
   id="path3454" />
<g
   id="g5"
   transform="matrix(0.220363,0,0,0.220363,92.79685,141.59872)">
	<g
   id="g7">
		<path
   d="m 58.593,46.198 c 0,-5.16 1.896,-9.419 5.685,-12.78 3.787,-3.359 8.281,-5.04 13.479,-5.04 5.748,0 10.501,1.688 14.263,5.066 3.758,3.378 5.64,7.646 5.64,12.806 0,5.125 -1.861,9.38 -5.581,12.767 -3.721,3.387 -8.406,5.079 -14.055,5.079 -5.65,0 -10.303,-1.685 -13.952,-5.053 -3.653,-3.368 -5.479,-7.65 -5.479,-12.845 z M 78.14,35.346 c -3.248,-0.053 -5.865,0.958 -7.854,3.032 -1.987,2.075 -2.98,4.752 -2.98,8.033 0,3.104 1.014,5.674 3.039,7.713 2.029,2.039 4.589,3.059 7.68,3.059 3.248,0 5.87,-1.006 7.869,-3.019 1.996,-2.012 2.996,-4.668 2.996,-7.966 0,-3.244 -0.979,-5.851 -2.939,-7.82 -1.96,-1.969 -4.562,-2.978 -7.811,-3.032 z"
   id="path9"
   inkscape:connector-curvature="0"
   style="fill:#ffffff" />
		<path
   d="m 103.5,33.378 h 7.559 v 7.847 h 3.633 v 6.25 h -3.633 V 64.097 H 103.5 V 47.475 h -2.895 v -6.25 h 2.895 v -7.847 z"
   id="path11"
   inkscape:connector-curvature="0"
   style="fill:#ffffff" />
		<path
   d="m 120.796,33.378 h 7.559 v 7.847 h 3.633 v 6.25 h -3.633 v 16.622 h -7.559 V 47.475 h -2.895 v -6.25 h 2.895 v -7.847 z"
   id="path13"
   inkscape:connector-curvature="0"
   style="fill:#ffffff" />
		<path
   d="m 135.013,52.235 c 0,-3.528 1.249,-6.411 3.75,-8.645 2.499,-2.234 5.709,-3.351 9.625,-3.351 3.642,0 6.699,1.139 9.17,3.417 2.47,2.279 3.705,5.103 3.705,8.472 0,3.44 -1.235,6.294 -3.705,8.564 -2.471,2.27 -5.566,3.404 -9.286,3.404 -4.192,0 -7.453,-1.2 -9.774,-3.604 -2.325,-2.402 -3.485,-5.154 -3.485,-8.257 z m 18.809,0 c 0,-1.542 -0.563,-2.89 -1.685,-4.043 -1.121,-1.153 -2.43,-1.729 -3.928,-1.729 -1.554,0 -2.894,0.542 -4.016,1.623 -1.121,1.081 -1.682,2.376 -1.682,3.882 0,1.649 0.557,3.052 1.669,4.204 1.109,1.151 2.455,1.728 4.028,1.728 1.498,0 2.807,-0.563 3.928,-1.688 1.124,-1.127 1.686,-2.452 1.686,-3.977 z"
   id="path15"
   inkscape:connector-curvature="0"
   style="fill:#ffffff" />
	</g>
	<g
   id="g17">
		<path
   d="m 58.593,67.629 h 4.801 v 10.034 c 1.424,-1.509 3.051,-2.264 4.875,-2.264 1.926,0 3.594,0.75 5,2.248 1.406,1.498 2.109,3.3 2.109,5.406 0,1.993 -0.693,3.73 -2.082,5.211 -1.387,1.481 -3,2.221 -4.838,2.221 -0.926,0 -1.779,-0.208 -2.561,-0.625 -0.783,-0.417 -1.629,-1.082 -2.541,-1.994 v 2.349 H 58.592 V 67.629 z m 8.252,12.096 c -0.951,0 -1.744,0.307 -2.383,0.921 -0.637,0.614 -0.957,1.438 -0.957,2.475 0,0.991 0.336,1.81 1.004,2.458 0.668,0.648 1.51,0.972 2.521,0.972 0.926,0 1.695,-0.318 2.309,-0.955 0.613,-0.636 0.918,-1.438 0.918,-2.406 0,-0.946 -0.334,-1.76 -1.002,-2.441 -0.668,-0.684 -1.473,-1.024 -2.41,-1.024 z"
   id="path19"
   inkscape:connector-curvature="0"
   style="fill:#ffffff" />
		<path
   d="m 78.21,75.721 h 4.876 v 6.96 c 0,1.002 0.283,1.838 0.852,2.508 0.566,0.67 1.268,1.005 2.104,1.005 0.885,0 1.629,-0.324 2.232,-0.971 0.605,-0.647 0.908,-1.461 0.908,-2.44 v -7.062 h 4.877 v 8.446 c 0,1.791 -0.758,3.292 -2.277,4.502 -1.518,1.211 -3.406,1.816 -5.666,1.816 -2.396,0 -4.313,-0.608 -5.751,-1.825 -1.436,-1.216 -2.154,-2.832 -2.154,-4.848 v -8.091 z"
   id="path21"
   inkscape:connector-curvature="0"
   style="fill:#ffffff" />
		<path
   d="m 96.686,70.577 c 0,-0.734 0.295,-1.367 0.883,-1.898 0.588,-0.53 1.293,-0.796 2.119,-0.796 0.823,0 1.528,0.266 2.118,0.796 0.586,0.532 0.881,1.164 0.881,1.898 0,0.746 -0.295,1.384 -0.881,1.915 -0.59,0.532 -1.295,0.797 -2.118,0.797 -0.826,0 -1.531,-0.265 -2.119,-0.797 -0.589,-0.531 -0.883,-1.169 -0.883,-1.915 z m 0.619,5.38 h 4.802 V 90.485 H 97.305 V 75.957 z"
   id="path23"
   inkscape:connector-curvature="0"
   style="fill:#ffffff" />
		<path
   d="m 105.796,67.933 h 4.801 v 22.553 h -4.801 V 67.933 z"
   id="path25"
   inkscape:connector-curvature="0"
   style="fill:#ffffff" />
		<path
   d="m 125.248,67.696 h 4.84 v 22.553 h -4.727 v -2.483 h -0.074 c -1.398,1.813 -3.135,2.72 -5.204,2.72 -1.85,0 -3.426,-0.727 -4.73,-2.179 -1.305,-1.453 -1.957,-3.228 -1.957,-5.322 0,-2.095 0.674,-3.882 2.021,-5.363 1.35,-1.481 2.965,-2.222 4.852,-2.222 1.073,0 1.978,0.177 2.714,0.532 0.736,0.355 1.492,0.933 2.266,1.731 v -9.967 z m -3.535,11.994 c -0.785,0 -1.521,0.326 -2.206,0.98 -0.686,0.653 -1.027,1.537 -1.027,2.652 0,0.89 0.301,1.65 0.906,2.281 0.605,0.631 1.337,0.945 2.196,0.945 1.023,0 1.877,-0.34 2.563,-1.021 0.686,-0.681 1.029,-1.529 1.029,-2.542 0,-0.878 -0.334,-1.646 -1.002,-2.306 -0.666,-0.659 -1.486,-0.989 -2.459,-0.989 z"
   id="path27"
   inkscape:connector-curvature="0"
   style="fill:#ffffff" />
		<path
   d="m 148.942,83.947 h -11.497 c 0.063,0.935 0.404,1.695 1.021,2.281 0.621,0.586 1.342,0.879 2.168,0.879 1.475,0 2.631,-0.603 3.469,-1.808 l 4.406,1.317 c -1.637,2.579 -4.182,3.869 -7.633,3.869 -2.537,0 -4.558,-0.693 -6.056,-2.078 -1.502,-1.385 -2.252,-3.249 -2.252,-5.591 0,-2.106 0.791,-3.874 2.373,-5.305 1.582,-1.43 3.528,-2.145 5.841,-2.145 2.326,0 4.268,0.751 5.824,2.255 1.557,1.503 2.336,3.381 2.336,5.634 v 0.692 z m -11.46,-2.905 h 6.487 c -0.449,-1.813 -1.48,-2.72 -3.094,-2.72 -0.924,0 -1.691,0.236 -2.297,0.709 -0.604,0.474 -0.971,1.144 -1.096,2.011 z"
   id="path29"
   inkscape:connector-curvature="0"
   style="fill:#ffffff" />
		<path
   d="m 156.894,75.957 v 2.145 h 0.076 c 0.475,-0.72 1.025,-1.292 1.656,-1.714 0.633,-0.422 1.217,-0.634 1.754,-0.634 0.326,0 0.619,0.023 0.883,0.068 v 4.73 c -0.4,-0.068 -0.795,-0.102 -1.182,-0.102 -0.988,0 -1.754,0.313 -2.297,0.938 -0.543,0.625 -0.814,1.501 -0.814,2.627 v 6.47 h -4.877 V 75.957 h 4.801 z"
   id="path31"
   inkscape:connector-curvature="0"
   style="fill:#ffffff" />
	</g>
</g>
<g
   id="g33"
   transform="matrix(0.22371296,0,0,0.22371296,92.427702,140.06666)">
	<polygon
   points="59.421,151.775 66.96,151.775 152.902,151.775 160.442,151.775 160.442,206.057 157.427,209.076 151.653,209.076 68.213,209.076 68.208,209.076 62.437,209.076 59.421,206.057 "
   id="polygon35"
   style="fill:#ffffff" />
	<polygon
   points="69.716,108.052 150.149,108.052 154.412,108.052 157.427,111.066 157.427,151.775 62.437,151.775 62.437,111.066 65.451,108.052 "
   id="polygon37"
   style="fill:#ffffff" />
	<g
   id="g39">
		
			<line
   x1="160.442"
   y1="206.05701"
   x2="152.90199"
   y2="206.05701"
   id="line41"
   style="fill:none;stroke:#262261;stroke-width:2.12599993;stroke-linecap:round;stroke-linejoin:round" />
		
			<line
   x1="152.90199"
   y1="151.77499"
   x2="152.90199"
   y2="206.05701"
   id="line43"
   style="fill:none;stroke:#262261;stroke-width:2.12599993;stroke-linecap:round;stroke-linejoin:round" />
		
			<line
   x1="66.959999"
   y1="206.05701"
   x2="66.959999"
   y2="151.77499"
   id="line45"
   style="fill:none;stroke:#262261;stroke-width:2.12599993;stroke-linecap:round;stroke-linejoin:round" />
		
			<line
   x1="59.421001"
   y1="206.05701"
   x2="66.959999"
   y2="206.05701"
   id="line47"
   style="fill:none;stroke:#262261;stroke-width:2.12599993;stroke-linecap:round;stroke-linejoin:round" />
		
			<line
   x1="66.959999"
   y1="206.05701"
   x2="68.208"
   y2="209.076"
   id="line49"
   style="fill:none;stroke:#262261;stroke-width:2.12599993;stroke-linecap:round;stroke-linejoin:round" />
		
			<line
   x1="152.90199"
   y1="206.05701"
   x2="66.959999"
   y2="206.05701"
   id="line51"
   style="fill:none;stroke:#262261;stroke-width:2.12599993;stroke-linecap:round;stroke-linejoin:round" />
		
			<line
   x1="151.653"
   y1="209.076"
   x2="152.90199"
   y2="206.05701"
   id="line53"
   style="fill:none;stroke:#262261;stroke-width:2.12599993;stroke-linecap:round;stroke-linejoin:round" />
	</g>
	<g
   id="g55">
		
			<line
   x1="68.470001"
   y1="111.066"
   x2="62.437"
   y2="111.066"
   id="line57"
   style="fill:none;stroke:#262261;stroke-width:2.12599993;stroke-linecap:round;stroke-linejoin:round" />
		
			<line
   x1="68.470001"
   y1="151.77499"
   x2="68.470001"
   y2="111.066"
   id="line59"
   style="fill:none;stroke:#262261;stroke-width:2.12599993;stroke-linecap:round;stroke-linejoin:round" />
		
			<line
   x1="151.396"
   y1="111.066"
   x2="151.396"
   y2="151.77499"
   id="line61"
   style="fill:none;stroke:#262261;stroke-width:2.12599993;stroke-linecap:round;stroke-linejoin:round" />
		
			<line
   x1="151.396"
   y1="111.066"
   x2="157.427"
   y2="111.066"
   id="line63"
   style="fill:none;stroke:#262261;stroke-width:2.12599993;stroke-linecap:round;stroke-linejoin:round" />
		
			<line
   x1="69.716003"
   y1="108.052"
   x2="68.470001"
   y2="111.066"
   id="line65"
   style="fill:none;stroke:#262261;stroke-width:2.12599993;stroke-linecap:round;stroke-linejoin:round" />
		
			<line
   x1="68.470001"
   y1="111.066"
   x2="151.396"
   y2="111.066"
   id="line67"
   style="fill:none;stroke:#262261;stroke-width:2.12599993;stroke-linecap:round;stroke-linejoin:round" />
		
			<line
   x1="150.149"
   y1="108.052"
   x2="151.396"
   y2="111.066"
   id="line69"
   style="fill:none;stroke:#262261;stroke-width:2.12599993;stroke-linecap:round;stroke-linejoin:round" />
		
			<line
   x1="59.421001"
   y1="151.77499"
   x2="160.442"
   y2="151.77499"
   id="line71"
   style="fill:none;stroke:#262261;stroke-width:2.12599993;stroke-linecap:round;stroke-linejoin:round" />
	</g>
	<path
   d="m 129.833,146.817 c 6.79,0 12.287,-5.5 12.287,-12.286 0,-6.786 -5.497,-12.288 -12.287,-12.288 -6.784,0 -12.286,5.502 -12.286,12.288 0,6.786 5.502,12.286 12.286,12.286 z"
   id="path73"
   inkscape:connector-curvature="0"
   style="fill:#262261" />
	<path
   d="m 129.91,143.303 c -4.852,0 -8.783,-3.935 -8.783,-8.787 0,-4.847 3.932,-8.778 8.783,-8.778 4.851,0 8.782,3.932 8.782,8.778 0,4.852 -3.931,8.787 -8.782,8.787 z"
   id="path75"
   inkscape:connector-curvature="0"
   style="fill:#ffffff" />
	<path
   d="m 89.951,146.817 c 6.791,0 12.292,-5.5 12.292,-12.286 0,-6.786 -5.501,-12.288 -12.292,-12.288 -6.784,0 -12.286,5.502 -12.286,12.288 0,6.786 5.502,12.286 12.286,12.286 z"
   id="path77"
   inkscape:connector-curvature="0"
   style="fill:#262261" />
	<path
   d="m 90.029,143.303 c -4.85,0 -8.778,-3.935 -8.778,-8.787 0,-4.847 3.929,-8.778 8.778,-8.778 4.849,0 8.782,3.932 8.782,8.778 10e-4,4.852 -3.933,8.787 -8.782,8.787 z"
   id="path79"
   inkscape:connector-curvature="0"
   style="fill:#ffffff" />
</g>
<path
   style="fill:none;stroke:#ff0000;stroke-width:0.2186593px;stroke-linecap:butt;stroke-linejoin:miter;stroke-opacity:1"
   d="M 12.602568,9.9767001 22.469939,0.10933"
   id="path3062"
   inkscape:connector-curvature="0" /><g
   id="g3078"
   transform="matrix(0.14019987,0,0,0.14019987,57.906861,62.603292)"
   style="fill:#ffffff;fill-opacity:1">
	<path
   id="path3080"
   d="m 361.173,376.742 c -9.483,0 -17.199,-7.714 -17.199,-17.197 0,-9.486 7.716,-17.203 17.199,-17.203 9.482,0 17.2,7.717 17.2,17.203 0,9.483 -7.718,17.197 -17.2,17.197 m 0,-28.468 c -6.213,0 -11.269,5.056 -11.269,11.271 0,6.211 5.056,11.268 11.269,11.268 6.214,0 11.269,-5.057 11.269,-11.268 -0.001,-6.215 -5.055,-11.271 -11.269,-11.271"
   inkscape:connector-curvature="0"
   style="fill:#ffffff;fill-opacity:1" />
	<path
   id="path3082"
   d="m 482.724,376.731 c -9.477,0.34 -17.464,-7.095 -17.805,-16.572 -0.338,-9.479 7.096,-17.465 16.573,-17.805 9.479,-0.338 17.466,7.096 17.804,16.572 0.34,9.479 -7.094,17.466 -16.572,17.805 m -1.019,-28.45 c -6.211,0.223 -11.079,5.456 -10.858,11.667 0.223,6.207 5.456,11.08 11.665,10.856 6.208,-0.222 11.081,-5.456 10.858,-11.663 -0.222,-6.21 -5.455,-11.082 -11.665,-10.86"
   inkscape:connector-curvature="0"
   style="fill:#ffffff;fill-opacity:1" />
	<polygon
   id="polygon3084"
   points="404.446,356.579 404.446,342.342 398.515,342.342 398.515,356.579 384.281,356.579 384.281,362.509 398.515,362.509 398.515,376.742 404.446,376.742 404.446,362.509 418.681,362.509 418.681,356.579 "
   style="fill:#ffffff;fill-opacity:1" />
	<polygon
   id="polygon3086"
   points="444.762,356.579 444.762,342.342 438.831,342.342 438.831,356.579 424.6,356.579 424.6,362.509 438.831,362.509 438.831,376.742 444.762,376.742 444.762,362.509 458.997,362.509 458.997,356.579 "
   style="fill:#ffffff;fill-opacity:1" />
	<path
   id="path3088"
   d="M 506.6,199.918 H 336.64 l -14.137,14.137 v 170.042 l 14.104,14.102 h 169.751 l 14.42,-14.42 V 214.095 L 506.6,199.918 z m 8.334,181.439 -10.998,10.996 H 339.028 l -10.68,-10.68 V 216.475 l 10.713,-10.712 h 165.117 l 10.755,10.753 v 164.841 z"
   inkscape:connector-curvature="0"
   style="fill:#ffffff;fill-opacity:1" />
</g><g
   id="g3103"
   transform="matrix(0.56690646,0,0,0.56690646,42.171976,-15.502823)"
   style="fill:#ffffff">
	<path
   style="fill:#ffffff"
   inkscape:connector-curvature="0"
   d="m 67.55,66.687 -2.406,-0.446 c -0.059,-0.012 -0.123,-0.067 -0.143,-0.123 l -0.737,-1.721 c -0.027,-0.054 -0.022,-0.137 0.012,-0.186 l 1.402,-2.044 c 0.034,-0.049 0.027,-0.124 -0.016,-0.166 L 63.911,60.25 c -0.042,-0.043 -0.117,-0.049 -0.166,-0.016 l -2.079,1.428 c -0.049,0.033 -0.134,0.039 -0.187,0.012 L 59.811,60.992 C 59.754,60.972 59.7,60.91 59.688,60.851 l -0.463,-2.489 c -0.01,-0.059 -0.067,-0.106 -0.127,-0.106 H 56.62 c -0.06,0 -0.117,0.048 -0.128,0.106 l -0.462,2.489 c -0.011,0.059 -0.066,0.121 -0.123,0.141 l -1.668,0.682 c -0.054,0.027 -0.138,0.021 -0.188,-0.012 l -2.079,-1.428 c -0.049,-0.033 -0.124,-0.027 -0.166,0.016 l -1.751,1.751 c -0.042,0.042 -0.05,0.117 -0.016,0.166 l 1.402,2.044 c 0.035,0.049 0.04,0.132 0.012,0.186 l -0.737,1.721 c -0.02,0.056 -0.083,0.111 -0.143,0.123 l -2.406,0.446 c -0.059,0.012 -0.106,0.069 -0.106,0.129 v 2.477 c 0,0.06 0.048,0.117 0.106,0.128 l 2.347,0.437 c 0.059,0.012 0.122,0.067 0.14,0.124 l 0.732,1.83 c 0.026,0.054 0.021,0.138 -0.013,0.187 l -1.333,1.943 c -0.034,0.049 -0.026,0.123 0.015,0.166 l 1.751,1.751 c 0.042,0.042 0.117,0.049 0.166,0.015 l 1.909,-1.31 c 0.049,-0.033 0.132,-0.036 0.183,-0.006 l 0.841,0.449 c 0.054,0.027 0.116,0.005 0.138,-0.051 l 1.736,-4.193 c 0.022,-0.055 0,-0.125 -0.051,-0.156 l -0.211,-0.129 c -0.039,-0.024 -0.091,-0.064 -0.133,-0.102 -0.76,-0.486 -1.264,-1.338 -1.264,-2.308 0,-1.512 1.227,-2.738 2.739,-2.738 1.512,0 2.739,1.227 2.739,2.738 0,0.97 -0.505,1.821 -1.265,2.308 -0.041,0.037 -0.094,0.077 -0.132,0.102 l -0.211,0.129 c -0.05,0.031 -0.074,0.102 -0.051,0.156 l 1.735,4.193 c 0.022,0.056 0.084,0.078 0.138,0.051 l 0.842,-0.449 c 0.051,-0.029 0.134,-0.027 0.183,0.007 l 1.909,1.309 c 0.049,0.034 0.124,0.027 0.166,-0.015 l 1.751,-1.751 c 0.042,-0.043 0.049,-0.117 0.016,-0.166 l -1.333,-1.943 c -0.034,-0.049 -0.04,-0.133 -0.013,-0.187 l 0.732,-1.83 c 0.019,-0.057 0.081,-0.112 0.14,-0.123 l 2.347,-0.438 c 0.059,-0.011 0.106,-0.068 0.106,-0.128 v -2.477 c -0.002,-0.06 -0.049,-0.118 -0.108,-0.129"
   id="path3105" />
</g><g
   id="g3107"
   transform="matrix(1.4175661,0,0,1.4175661,87.918659,106.86651)">
	<polygon
   style="fill:#060e9f"
   points="32.628,77.063 32.628,76.781 32.522,76.781 32.522,76.712 32.813,76.712 32.813,76.781 32.704,76.781 32.704,77.063 "
   id="polygon3109" />
	<rect
   style="fill:#060e9f"
   x="21.106001"
   y="79.510002"
   width="2.217"
   height="0.72100002"
   id="rect3111" />
	<polygon
   style="fill:#060e9f"
   points="30.626,79.518 30.626,80.217 29.953,80.217 29.953,80.896 29.25,80.896 29.25,80.217 28.575,80.217 28.575,79.518 29.25,79.518 29.25,78.843 29.953,78.843 29.953,79.518 "
   id="polygon3113" />
	<path
   style="fill:#060e9f"
   inkscape:connector-curvature="0"
   d="m 29.59,83.499 c -1.827,0 -2.833,-1.167 -3.639,-2.403 -0.838,1.287 -1.893,2.502 -3.867,2.397 -0.001,0 -0.001,0 -0.001,0 -1.974,0 -3.606,-1.58 -3.606,-3.523 0,-1.944 1.633,-3.525 3.639,-3.525 1.946,0 3.052,1.171 3.835,2.32 0.784,-1.149 1.89,-2.32 3.835,-2.32 2.007,0 3.64,1.581 3.64,3.525 0,1.943 -1.632,3.524 -3.64,3.524 -0.044,0.004 -0.12,0.005 -0.196,0.005 z m -2.907,-3.576 c 0.813,1.318 1.556,2.406 3.071,2.328 1.354,-0.001 2.428,-1.023 2.428,-2.281 0,-1.258 -1.075,-2.281 -2.396,-2.281 -1.488,-10e-4 -2.264,0.91 -3.103,2.234 z m -4.567,-2.235 c -1.32,0 -2.395,1.023 -2.395,2.281 0,1.258 1.075,2.28 2.395,2.28 0.088,0.005 0.143,0.006 0.197,0.006 1.409,0 2.124,-1.063 2.906,-2.333 -0.837,-1.323 -1.614,-2.234 -3.103,-2.234 z"
   id="path3115" />
	<polygon
   style="fill:#060e9f"
   points="32.829,77.063 32.829,76.712 32.927,76.712 33.003,76.95 33.077,76.712 33.173,76.712 33.173,77.063 33.102,77.063 33.102,76.845 33.036,77.063 32.97,77.063 32.9,76.839 32.9,77.063 "
   id="polygon3117" />
</g><path
   style="fill:#ffffff"
   inkscape:connector-curvature="0"
   d="m 62.867852,22.82459 -4.06385,-1.76523 v 1.25888 h -8.08265 l 2.0044,-2.65486 h 1.27789 c 0.21115,0.65245 0.82258,1.12479 1.54408,1.12479 0.90364,0 1.63515,-0.73052 1.63515,-1.63115 0,-0.90263 -0.73151,-1.63414 -1.63515,-1.63414 -0.7225,0 -1.33393,0.47533 -1.54408,1.12679 h -1.78224 l -2.76294,3.66857 h -0.59541 c -0.23017,-1.00471 -1.12479,-1.75123 -2.20055,-1.75123 -1.24887,0 -2.25858,1.00971 -2.25858,2.25758 0,1.24387 1.00971,2.25558 2.25858,2.25558 1.07576,0 1.97038,-0.74952 2.20055,-1.75223 h 2.67687 l 2.37266,3.40739 h 1.55309 v 0.78755 h 2.58981 v -2.58281 h -2.58981 v 0.78355 h -1.02772 l -1.66817,-2.39668 h 6.03522 v 1.26089 l 4.06285,-1.76324 0,0 z"
   id="path3119" /><g
   id="g3438"
   style="fill:#ffffff;fill-opacity:1"
   transform="matrix(0.9198786,0,0,0.9198786,177.87807,-129.44436)"><path
     id="path3123"
     d="m -66.26678,159.76808 4.003,2.778 -2.666,2.439 2.624,2.402 -3.961,3.252 v -4.43 l -1.697,1.555 -0.727,-0.796 2.165,-1.983 -2.165,-1.982 0.727,-0.797 1.697,1.551 v -3.989 z m 2.277,2.895 -1.196,-0.831 v 1.925 l 1.196,-1.094 z m 0.036,4.68 -1.232,-1.133 v 2.148 l 1.232,-1.015 z"
     inkscape:connector-curvature="0"
     style="fill:#ffffff;fill-opacity:1" /></g><g
   transform="matrix(0.83934869,0,0,0.83934869,28.340465,-829.43702)"
   id="g3125"
   style="fill:#ffffff">
	<path
   style="fill:#ffffff"
   inkscape:connector-curvature="0"
   d="m 80.007,1009.068 c -1.372,0 -2.494,1.119 -2.494,2.492 0,0.543 0.163,1.119 0.471,1.547 0.09,0.123 0.262,0.152 0.387,0.061 0.123,-0.088 0.152,-0.262 0.061,-0.385 -0.215,-0.301 -0.361,-0.799 -0.361,-1.223 0,-1.074 0.865,-1.939 1.938,-1.939 1.077,0 1.941,0.865 1.941,1.939 0,0.424 -0.148,0.922 -0.361,1.223 -0.093,0.123 -0.063,0.297 0.06,0.385 0.126,0.092 0.299,0.063 0.388,-0.061 0.308,-0.428 0.469,-1.004 0.469,-1.547 -0.003,-1.373 -1.122,-2.492 -2.499,-2.492 z m 0,1.94 c -0.458,0 -0.83,0.371 -0.83,0.83 v 4.986 l -0.554,-1.107 c -0.451,-0.844 -0.9,-0.756 -1.245,-0.555 -0.402,0.27 -0.551,0.547 -0.277,1.248 0.629,1.543 1.592,3.383 2.633,4.572 h 3.736 c 1.316,-0.973 2.373,-5.605 0.557,-5.82 -0.168,0 -0.434,0.025 -0.557,0.139 0,-0.553 -0.482,-0.697 -0.691,-0.691 -0.238,0 -0.417,0.139 -0.557,0.414 0,-0.555 -0.449,-0.693 -0.689,-0.693 -0.264,0 -0.572,0.17 -0.693,0.418 v -2.91 c -0.001,-0.46 -0.368,-0.831 -0.833,-0.831 z"
   id="path3127" />
</g><g
   id="g3129"
   transform="matrix(0,-1.3681762,1.3681762,0,79.791763,157.28071)"
   style="fill:#ffffff">
	<path
   style="fill:#ffffff"
   inkscape:connector-curvature="0"
   d="M 96.644,66.995 H 94.84 v 15.891 h 7.309 V 66.995 h -1.582 v -0.973 h -3.923 v 0.973 z m 4.857,0.649 V 82.238 H 95.486 V 67.644 h 6.015 z"
   id="path3131" />
	<rect
   style="fill:#ffffff"
   x="96.305"
   y="78.932999"
   width="4.6009998"
   height="2.678"
   id="rect3133" />
	<rect
   style="fill:#ffffff"
   x="96.305"
   y="75.413002"
   width="4.6009998"
   height="2.6800001"
   id="rect3135" />
	<rect
   style="opacity:0.25;fill:#ffffff"
   x="96.305"
   y="71.896004"
   width="4.6009998"
   height="2.678"
   id="rect3137" />
	<rect
   style="opacity:0.25;fill:#ffffff"
   x="96.305"
   y="68.374001"
   width="4.6009998"
   height="2.6800001"
   id="rect3139" />
</g><g
   id="g3141"
   transform="translate(37.482169,170.46935)">
	<polygon
   style="fill:#ffffff"
   points="25.381,48.147 23.708,46.474 20.028,46.474 18.354,48.147 18.354,53.667 18.354,54.673 20.028,54.673 29.732,54.673 31.739,54.673 31.739,53.667 31.069,53.001 29.453,53.001 25.381,53.001 "
   id="polygon3143" />
	<path
   style="fill:#010101"
   inkscape:connector-curvature="0"
   d="m 31.829,54.673 v -1.006 c 0,-0.021 -0.009,-0.047 -0.025,-0.063 l -0.67,-0.67 C 31.116,52.918 31.093,52.909 31.07,52.909 h -5.598 v -4.762 c 0,-0.006 -0.005,-0.011 -0.006,-0.017 -0.001,-0.006 0.002,-0.012 0,-0.017 C 25.463,48.107 25.457,48.105 25.454,48.1 25.45,48.094 25.451,48.086 25.446,48.081 l -1.673,-1.672 c -0.004,-0.004 -0.011,-0.004 -0.016,-0.007 -0.006,-0.004 -0.007,-0.011 -0.014,-0.014 -0.006,-0.003 -0.013,0.001 -0.02,0 -0.006,-10e-4 -0.01,-0.007 -0.017,-0.007 h -3.68 c -0.007,0 -0.011,0.006 -0.017,0.007 -0.006,0.001 -0.013,-0.003 -0.019,0 -0.006,0.003 -0.008,0.01 -0.013,0.013 -0.005,0.004 -0.013,0.003 -0.017,0.008 l -1.672,1.672 c -0.005,0.004 -0.004,0.012 -0.008,0.018 -0.004,0.005 -0.011,0.007 -0.014,0.014 -0.002,0.006 0.001,0.012 0,0.018 -10e-4,0.006 -0.007,0.01 -0.007,0.016 v 5.52 1.006 c 0,0.05 0.041,0.09 0.091,0.09 h 13.385 c 0.055,0 0.094,-0.04 0.094,-0.09 z m -12.715,-6.209 1.228,-1.229 h 3.054 l 1.226,1.229 v 4.445 h -5.507 v -4.445 z m 1.055,4.625 -0.203,0.489 h -1.392 l 0.487,-0.489 h 1.108 z m 10.862,0 0.489,0.489 H 29.793 L 29.59,53.089 h 1.441 z m -1.637,0 0.203,0.489 h -9.434 l 0.204,-0.489 h 9.027 z m -4.103,-0.18 h -0.488 v -4.422 l 0.488,-0.205 v 4.627 z m -0.069,-4.794 -0.489,0.203 -1.194,-1.196 0.203,-0.486 1.48,1.479 z m -1.649,-1.55 -0.203,0.487 h -3.003 l -0.204,-0.487 h 3.41 z m -5.058,1.551 1.48,-1.479 0.202,0.485 -1.195,1.195 -0.487,-0.201 z m 0.419,0.369 v 4.475 l -0.487,0.49 v -5.167 l 0.487,0.202 z m -0.488,6.098 v -0.824 h 1.49 v 0.824 h -1.49 z m 1.673,0 v -0.824 h 9.523 v 0.824 h -9.523 z m 9.704,0 v -0.824 h 1.825 v 0.824 h -1.825 z"
   id="path3145" />
</g><g
   id="g3147"
   transform="translate(21.234069,170.46935)">
	<polygon
   style="fill:#ffffff"
   points="17.449,54.673 15.775,54.673 6.071,54.673 4.065,54.673 4.065,53.667 4.734,53.001 6.35,53.001 10.422,53.001 10.422,48.147 12.095,46.474 15.775,46.474 17.449,48.147 17.449,53.667 "
   id="polygon3149" />
	<path
   style="fill:#010101"
   inkscape:connector-curvature="0"
   d="m 4.065,54.763 h 13.384 c 0.051,0 0.091,-0.041 0.091,-0.09 v -1.006 -5.52 c 0,-0.006 -0.006,-0.011 -0.007,-0.016 -0.001,-0.006 0.003,-0.013 0,-0.019 -0.003,-0.007 -0.009,-0.008 -0.013,-0.013 -0.004,-0.006 -0.003,-0.014 -0.008,-0.018 l -1.673,-1.673 c -0.004,-0.004 -0.011,-0.003 -0.016,-0.007 -0.005,-0.004 -0.007,-0.011 -0.013,-0.014 -0.007,-0.002 -0.013,0.002 -0.02,10e-4 -0.006,-10e-4 -0.01,-0.007 -0.017,-0.007 h -3.68 c -0.006,0 -0.01,0.006 -0.017,0.007 -0.006,0.001 -0.013,-0.003 -0.02,-10e-4 -0.006,0.004 -0.008,0.01 -0.013,0.014 -0.005,0.004 -0.013,0.003 -0.016,0.007 l -1.673,1.673 c -0.005,0.005 -0.004,0.012 -0.008,0.019 -0.003,0.005 -0.01,0.007 -0.012,0.012 -0.002,0.006 0.001,0.012 0,0.018 -10e-4,0.005 -0.007,0.011 -0.007,0.017 v 4.762 H 4.734 c -0.023,0 -0.047,0.009 -0.064,0.025 L 4,53.604 C 3.984,53.62 3.975,53.645 3.975,53.667 v 1.006 c -10e-4,0.049 0.039,0.09 0.09,0.09 z m 12.624,-1.854 h -5.507 v -4.446 l 1.227,-1.228 h 3.053 l 1.228,1.229 v 4.445 z m 0.053,0.18 0.488,0.488 h -1.393 l -0.202,-0.488 h 1.107 z m -10.529,0 -0.203,0.488 H 4.284 l 0.488,-0.488 h 1.441 z m 9.224,0 0.203,0.488 H 6.207 l 0.204,-0.488 h 9.026 z M 10.512,48.282 11,48.486 v 4.423 h -0.488 v -4.627 z m 1.551,-1.646 0.202,0.486 -1.194,1.196 -0.488,-0.203 1.48,-1.479 z m 3.577,-0.071 -0.203,0.486 h -3.003 l -0.203,-0.486 h 3.409 z m 1.161,1.752 -1.195,-1.195 0.202,-0.486 1.48,1.48 -0.487,0.201 z m 0.557,-0.034 v 5.167 l -0.487,-0.49 v -4.475 l 0.487,-0.202 z m -1.491,6.299 v -0.823 h 1.491 v 0.823 h -1.491 z m -9.706,0 v -0.823 h 9.524 v 0.823 H 6.161 z m -2.006,0 V 53.759 H 5.98 v 0.823 H 4.155 z"
   id="path3151" />
</g><g
   id="g3153"
   transform="translate(28.514459,181.98435)">
	<polyline
   style="fill:#ffffff"
   points="24.907,43.132 24.907,32.972 24.238,32.302 23.96,32.302 20.332,32.302 20.055,32.302    19.386,32.972 19.386,43.146  "
   id="polyline3155" />
	<path
   style="fill:#010101"
   inkscape:connector-curvature="0"
   d="m 25.009,43.146 c 0,-0.012 -0.008,-0.018 -0.011,-0.027 V 32.972 c 0,-0.025 -0.01,-0.047 -0.026,-0.064 l -0.67,-0.67 C 24.285,32.22 24.263,32.212 24.239,32.212 h -4.184 c -0.025,0 -0.047,0.009 -0.063,0.026 l -0.671,0.67 c -0.015,0.018 -0.024,0.039 -0.024,0.064 v 10.143 c -0.004,0.011 -0.013,0.019 -0.013,0.031 0,0.055 0.046,0.102 0.102,0.102 h 5.522 c 0.056,-10e-4 0.101,-0.048 0.101,-0.102 z m -1.11,-10.754 0.203,0.488 h -3.911 l 0.202,-0.488 h 3.506 z m 0.248,0.67 v 9.975 c 0,0.003 0.002,0.005 0.003,0.008 h -4.005 v -9.982 h 4.002 z m 0.18,9.982 c 0,-0.003 0.003,-0.005 0.003,-0.008 v -9.975 h 0.487 v 9.982 h -0.49 z M 24.688,32.88 H 24.3 l -0.203,-0.488 h 0.104 l 0.487,0.488 z m -4.492,-0.488 -0.203,0.488 h -0.388 l 0.486,-0.488 h 0.105 z m -0.72,0.67 h 0.488 v 9.982 h -0.488 v -9.982 z"
   id="path3157" />
	<path
   style="fill:#010101"
   inkscape:connector-curvature="0"
   d="m 21.423,41.24 c 0,-0.399 0.324,-0.724 0.723,-0.724 0.399,0 0.725,0.324 0.725,0.724 0,0.4 -0.325,0.724 -0.725,0.724 -0.399,0 -0.723,-0.324 -0.723,-0.724 z m 1.244,0 c 0,-0.287 -0.233,-0.521 -0.521,-0.521 -0.286,0 -0.52,0.233 -0.52,0.521 0,0.286 0.233,0.521 0.52,0.521 0.288,0 0.521,-0.235 0.521,-0.521 z"
   id="path3159" />
</g><g
   id="g3161"
   transform="translate(30.130869,181.94135)">
	<polyline
   style="fill:#ffffff"
   points="16.157,43.175 16.157,33.015 15.488,32.345 15.21,32.345 11.582,32.345 11.305,32.345    10.636,33.015 10.636,43.188  "
   id="polyline3163" />
	<path
   style="fill:#010101"
   inkscape:connector-curvature="0"
   d="m 16.259,43.188 c 0,-0.011 -0.008,-0.018 -0.011,-0.027 V 33.015 c 0,-0.025 -0.01,-0.047 -0.026,-0.064 l -0.67,-0.67 c -0.017,-0.017 -0.039,-0.025 -0.063,-0.025 h -4.184 c -0.025,0 -0.047,0.009 -0.063,0.025 l -0.671,0.67 c -0.015,0.018 -0.024,0.039 -0.024,0.064 v 10.143 c -0.004,0.012 -0.013,0.02 -0.013,0.031 0,0.056 0.046,0.102 0.102,0.102 h 5.522 c 0.056,-10e-4 0.101,-0.047 0.101,-0.103 z m -1.11,-10.753 0.203,0.489 h -3.911 l 0.202,-0.489 h 3.506 z m 0.248,0.67 v 9.974 c 0,0.004 0.002,0.005 0.003,0.008 h -4.005 v -9.981 h 4.002 z m 0.18,9.982 c 0,-0.003 0.003,-0.004 0.003,-0.008 v -9.974 h 0.487 v 9.981 h -0.49 z M 15.938,32.924 H 15.55 l -0.203,-0.489 h 0.104 l 0.487,0.489 z m -4.492,-0.489 -0.203,0.489 h -0.388 l 0.486,-0.489 h 0.105 z m -0.72,0.67 h 0.488 v 9.981 h -0.488 v -9.981 z"
   id="path3165" />
	<path
   style="fill:#010101"
   inkscape:connector-curvature="0"
   d="m 12.673,41.283 c 0,-0.399 0.324,-0.724 0.723,-0.724 0.399,0 0.725,0.324 0.725,0.724 0,0.4 -0.325,0.724 -0.725,0.724 -0.399,0 -0.723,-0.324 -0.723,-0.724 z m 1.244,0 c 0,-0.286 -0.233,-0.521 -0.521,-0.521 -0.286,0 -0.52,0.234 -0.52,0.521 0,0.287 0.233,0.521 0.52,0.521 0.288,0 0.521,-0.234 0.521,-0.521 z"
   id="path3167" />
</g><g
   id="g3169"
   transform="matrix(0.88183424,0,0,0.88183424,82.351756,116.12678)"
   style="fill:#ffffff">
	<path
   style="fill:#ffffff"
   inkscape:connector-curvature="0"
   d="m 8.872,93.754 c 0,-0.875 0.277,-1.584 0.832,-2.136 0.557,-0.551 1.272,-0.829 2.141,-0.829 0.811,0 1.488,0.285 2.039,0.848 0.549,0.561 0.823,1.259 0.823,2.088 0,0.849 -0.274,1.555 -0.823,2.115 -0.551,0.561 -1.235,0.84 -2.065,0.84 -0.935,0 -1.656,-0.299 -2.173,-0.889 C 9.131,95.197 8.872,94.517 8.872,93.754 z m 4.182,0 c 0,-0.381 -0.127,-0.715 -0.375,-1 -0.249,-0.285 -0.54,-0.427 -0.872,-0.427 -0.345,0 -0.646,0.134 -0.894,0.4 -0.253,0.268 -0.378,0.585 -0.378,0.958 0,0.406 0.125,0.752 0.374,1.037 0.249,0.287 0.545,0.428 0.897,0.428 0.332,0 0.623,-0.139 0.872,-0.416 0.249,-0.279 0.376,-0.605 0.376,-0.98 z"
   id="path3171" />
	<path
   style="fill:#ffffff"
   inkscape:connector-curvature="0"
   d="m 15.574,89.098 h 1.683 v 1.938 h 0.807 v 1.543 h -0.807 v 4.102 H 15.574 V 92.579 H 14.93 v -1.543 h 0.644 v -1.938 z"
   id="path3173" />
	<path
   style="fill:#ffffff"
   inkscape:connector-curvature="0"
   d="m 19.569,89.098 h 1.68 v 1.938 h 0.808 v 1.543 h -0.808 v 4.102 h -1.68 v -4.102 h -0.645 v -1.543 h 0.645 v -1.938 z"
   id="path3175" />
	<path
   style="fill:#ffffff"
   inkscape:connector-curvature="0"
   d="m 22.28,93.754 c 0,-0.875 0.278,-1.584 0.836,-2.136 0.554,-0.551 1.264,-0.829 2.138,-0.829 0.81,0 1.49,0.285 2.038,0.848 0.554,0.561 0.824,1.259 0.824,2.088 0,0.849 -0.271,1.555 -0.824,2.115 -0.548,0.561 -1.237,0.84 -2.062,0.84 -0.934,0 -1.659,-0.299 -2.173,-0.889 -0.519,-0.594 -0.777,-1.274 -0.777,-2.037 z m 4.183,0 c 0,-0.381 -0.125,-0.715 -0.373,-1 -0.254,-0.285 -0.543,-0.427 -0.878,-0.427 -0.342,0 -0.643,0.134 -0.891,0.4 -0.25,0.268 -0.372,0.585 -0.372,0.958 0,0.406 0.122,0.752 0.371,1.037 0.245,0.287 0.543,0.428 0.892,0.428 0.335,0 0.624,-0.139 0.878,-0.416 0.248,-0.279 0.373,-0.605 0.373,-0.98 z"
   id="path3177" />
	<path
   style="fill:#ffffff"
   inkscape:connector-curvature="0"
   d="m 32.603,87.822 h 1.695 v 8.764 h -1.656 v -0.964 h -0.026 c -0.49,0.704 -1.094,1.058 -1.821,1.058 -0.646,0 -1.197,-0.281 -1.656,-0.846 -0.456,-0.566 -0.684,-1.256 -0.684,-2.07 0,-0.813 0.235,-1.506 0.705,-2.084 0.475,-0.577 1.04,-0.864 1.702,-0.864 0.373,0 0.69,0.072 0.948,0.208 0.259,0.141 0.521,0.364 0.793,0.674 v -3.876 z m -1.237,4.662 c -0.275,0 -0.535,0.127 -0.774,0.383 -0.237,0.253 -0.36,0.595 -0.36,1.027 0,0.346 0.11,0.643 0.32,0.889 0.211,0.243 0.466,0.365 0.769,0.365 0.356,0 0.656,-0.131 0.899,-0.397 0.235,-0.265 0.355,-0.591 0.355,-0.987 0,-0.34 -0.114,-0.641 -0.349,-0.895 -0.234,-0.258 -0.519,-0.385 -0.86,-0.385 z"
   id="path3179" />
	<path
   style="fill:#ffffff"
   inkscape:connector-curvature="0"
   d="m 35.138,88.943 c 0,-0.285 0.104,-0.53 0.312,-0.738 0.205,-0.207 0.452,-0.31 0.74,-0.31 0.289,0 0.537,0.103 0.741,0.31 0.209,0.208 0.31,0.453 0.31,0.738 0,0.288 -0.101,0.539 -0.31,0.746 -0.204,0.205 -0.452,0.309 -0.741,0.309 -0.288,0 -0.535,-0.104 -0.74,-0.309 -0.208,-0.207 -0.312,-0.458 -0.312,-0.746 z m 0.22,2.092 h 1.676 v 5.645 h -1.676 v -5.645 z"
   id="path3181" />
	<path
   style="fill:#ffffff"
   inkscape:connector-curvature="0"
   d="m 37.598,91.038 h 1.796 l 1.618,3.278 1.446,-3.278 h 1.718 l -3.516,8.124 h -1.744 l 1.26,-2.894 -2.578,-5.23 z"
   id="path3183" />
	<path
   style="fill:#ffffff"
   inkscape:connector-curvature="0"
   d="m 44.985,95.633 c 0,-0.289 0.106,-0.537 0.312,-0.744 0.205,-0.204 0.454,-0.307 0.738,-0.307 0.294,0 0.538,0.103 0.747,0.307 0.204,0.207 0.308,0.455 0.308,0.744 0,0.287 -0.104,0.531 -0.308,0.738 -0.209,0.205 -0.453,0.309 -0.747,0.309 -0.284,0 -0.533,-0.104 -0.738,-0.309 -0.205,-0.207 -0.312,-0.451 -0.312,-0.738 z"
   id="path3185" />
	<path
   style="fill:#ffffff"
   inkscape:connector-curvature="0"
   d="m 52.689,94.605 v 1.68 c -0.58,0.264 -1.058,0.395 -1.438,0.395 -0.85,0 -1.557,-0.279 -2.127,-0.84 -0.572,-0.561 -0.853,-1.26 -0.853,-2.102 0,-0.843 0.265,-1.545 0.792,-2.1 0.522,-0.557 1.197,-0.834 2.005,-0.834 0.563,0 1.111,0.13 1.64,0.395 v 1.587 c -0.49,-0.235 -0.939,-0.353 -1.344,-0.353 -0.38,0 -0.683,0.113 -0.912,0.344 -0.229,0.23 -0.344,0.533 -0.344,0.908 0,0.372 0.114,0.672 0.341,0.902 0.23,0.23 0.526,0.347 0.899,0.347 0.34,0.001 0.786,-0.11 1.341,-0.329 z"
   id="path3187" />
	<path
   style="fill:#ffffff"
   inkscape:connector-curvature="0"
   d="m 53.872,93.754 c 0,-0.875 0.278,-1.584 0.83,-2.136 0.559,-0.551 1.271,-0.829 2.142,-0.829 0.81,0 1.491,0.285 2.042,0.848 0.547,0.561 0.823,1.259 0.823,2.088 0,0.849 -0.276,1.555 -0.823,2.115 -0.551,0.561 -1.24,0.84 -2.068,0.84 -0.933,0 -1.657,-0.299 -2.172,-0.889 -0.515,-0.594 -0.774,-1.274 -0.774,-2.037 z m 4.183,0 c 0,-0.381 -0.128,-0.715 -0.378,-1 -0.249,-0.285 -0.537,-0.427 -0.872,-0.427 -0.345,0 -0.642,0.134 -0.893,0.4 -0.248,0.268 -0.373,0.585 -0.373,0.958 0,0.406 0.123,0.752 0.369,1.037 0.249,0.287 0.548,0.428 0.896,0.428 0.335,0 0.623,-0.139 0.872,-0.416 0.251,-0.279 0.379,-0.605 0.379,-0.98 z"
   id="path3189" />
	<path
   style="fill:#ffffff"
   inkscape:connector-curvature="0"
   d="m 62.525398,91.035 v 0.897 c 0.076,-0.052 0.196,-0.153 0.347,-0.3 0.152,-0.149 0.301,-0.275 0.445,-0.376 0.14,-0.105 0.314,-0.187 0.513,-0.251 0.194,-0.064 0.378,-0.098 0.54,-0.098 0.259,0 0.538,0.093 0.842,0.272 0.3,0.186 0.554,0.505 0.755,0.97 0.35,-0.445 0.691,-0.763 1.027,-0.955 0.332,-0.189 0.643,-0.287 0.932,-0.287 0.512,0 0.948,0.215 1.303,0.637 0.352,0.421 0.528,0.941 0.528,1.559 v 3.576 h -1.677 v -3.131 c 0,-0.311 -0.088,-0.573 -0.257,-0.783 -0.173,-0.213 -0.378,-0.318 -0.619,-0.318 -0.288,0 -0.538,0.12 -0.749,0.359 -0.208,0.243 -0.313,0.528 -0.313,0.861 v 3.012 h -1.669 v -3.052 c 0,-0.327 -0.083,-0.606 -0.259,-0.829 -0.173,-0.227 -0.383,-0.339 -0.626,-0.339 -0.287,0 -0.541,0.124 -0.751,0.372 -0.21,0.244 -0.313,0.543 -0.313,0.888 v 2.96 h -1.698 v -5.645 h 1.699 z"
   id="path3191" />
</g><path
   style="fill:#060e9f"
   inkscape:connector-curvature="0"
   d="m 151.85757,219.72542 -1.09723,-0.21257 -0.29812,-0.72589 0.65445,-1.0055 c 0.09,-0.14553 0.0688,-0.33429 -0.0432,-0.45688 l -0.87848,-0.92524 c -0.0706,-0.0785 -0.17199,-0.1226 -0.27431,-0.1226 l -0.13759,0.007 -1.02667,0.74971 -0.6324,-0.27342 -0.21345,-1.21807 c -0.0291,-0.17993 -0.1861,-0.30958 -0.36339,-0.30958 h -1.2454 c -0.18434,0 -0.34487,0.142 -0.36339,0.30958 l -0.21698,1.21807 -0.62887,0.27342 -0.95787,-0.6959 c -0.0617,-0.0397 -0.13054,-0.06 -0.20639,-0.06 l -0.17905,0.0203 -0.98697,1.04166 c -0.0979,0.12436 -0.11202,0.30782 -0.0238,0.44895 l 0.64563,0.99844 -0.29106,0.7259 -1.12104,0.21785 c -0.16406,0.0458 -0.27607,0.19668 -0.27607,0.36251 v 1.32007 c 0,0.17641 0.12612,0.33164 0.29635,0.37044 l 1.06459,0.20464 0.2946,0.78411 -0.60683,0.93757 c -0.0979,0.13407 -0.0882,0.32635 0.0326,0.47276 l 0.87672,0.93053 c 0.0706,0.0741 0.16847,0.11907 0.27431,0.11907 l 0.13759,-0.008 0.92171,-0.67387 0.39602,0.21434 0.33429,-0.0327 0.94375,-2.41847 c 0.0688,-0.16406 0.007,-0.35722 -0.13759,-0.45513 l -0.1667,-0.1226 c -0.31488,-0.21432 -0.50452,-0.57683 -0.50452,-0.97462 0,-0.63769 0.48247,-1.15103 1.07165,-1.15103 0.59095,0 1.06988,0.51334 1.06988,1.15103 0,0.40132 -0.18434,0.7603 -0.49745,0.97462 l -0.16847,0.12437 c -0.15347,0.10058 -0.21168,0.299 -0.13935,0.44453 l 0.8679,2.23414 0.12436,0.22581 0.30871,-0.006 0.37397,-0.20816 0.84938,0.61918 0.11731,0.0618 h 0.0926 l 0.17905,-0.0185 0.97021,-1.02578 c 0.1226,-0.12877 0.13583,-0.3334 0.0467,-0.4657 l -0.61829,-0.94817 0.29459,-0.78411 1.07165,-0.20904 c 0.1667,-0.0397 0.29459,-0.19228 0.29459,-0.36603 v -1.32038 c -0.004,-0.16581 -0.11731,-0.31311 -0.30429,-0.36868 z m -0.5742,1.29126 -0.78058,0.157 c -0.14641,0.0309 -0.24255,0.10142 -0.32722,0.17465 -0.052,0.0556 -0.12084,0.13582 -0.16053,0.25402 l -0.36339,0.9605 c -0.0326,0.0838 -0.0503,0.1667 -0.0503,0.27254 0.004,0.1032 0.0176,0.22669 0.10849,0.37399 l 0.4463,0.6862 -0.29636,0.31488 -0.61124,-0.44101 c -0.11201,-0.0829 -0.23461,-0.11907 -0.37397,-0.11907 -0.0759,0 -0.14818,0.0106 -0.2205,0.0361 l -0.50804,-1.30098 c 0.45864,-0.3872 0.72501,-0.97285 0.72501,-1.5938 0,-1.12544 -0.87143,-2.04274 -1.94837,-2.04274 -1.07164,0 -1.9466,0.9173 -1.9466,2.04274 0,0.63065 0.27254,1.21631 0.73031,1.5938 l -0.51334,1.30098 c -0.20021,-0.0715 -0.41719,-0.0441 -0.59976,0.0847 l -0.60507,0.43924 -0.29812,-0.31488 0.44983,-0.69149 c 0.0917,-0.15083 0.10496,-0.27607 0.10496,-0.37662 0,-0.0891 -0.0141,-0.172 -0.0467,-0.25932 l -0.36339,-0.96227 c -0.0503,-0.1323 -0.12084,-0.21521 -0.18434,-0.27607 -0.0617,-0.0564 -0.157,-0.12613 -0.31312,-0.1623 l -0.77352,-0.1517 v -0.46306 l 0.80263,-0.16053 c 0.157,-0.0265 0.25137,-0.10319 0.31488,-0.16228 0.052,-0.0468 0.13054,-0.12877 0.17552,-0.25138 l 0.36163,-0.89965 c 0.0415,-0.0847 0.0617,-0.17905 0.0617,-0.28577 -0.004,-0.0882 -0.0141,-0.22051 -0.10849,-0.38016 l -0.48246,-0.74265 0.29812,-0.31399 0.68885,0.50097 c 0.14112,0.10497 0.27607,0.12172 0.38456,0.12614 0.0917,0 0.17905,-0.0177 0.26196,-0.0556 l 0.83879,-0.35897 c 0.12789,-0.0556 0.20022,-0.13584 0.26196,-0.20198 0.0432,-0.0574 0.10496,-0.1526 0.13759,-0.314 l 0.16053,-0.89877 h 0.40132 l 0.16052,0.90582 c 0.0291,0.1526 0.0917,0.24432 0.15347,0.32458 0.0538,0.06 0.13054,0.13055 0.24608,0.18346 l 0.8388,0.35898 c 0.0847,0.0379 0.1667,0.0556 0.26901,0.0556 l 0,0 c 0.10144,-0.004 0.23286,-0.0203 0.37398,-0.12436 l 0.69414,-0.50275 0.29283,0.31665 -0.48246,0.74795 c -0.0917,0.14641 -0.10144,0.27253 -0.10496,0.37397 0,0.0891 0.0141,0.17199 0.0538,0.27077 l 0.36339,0.90583 c 0.0556,0.12966 0.12789,0.21169 0.19316,0.26813 0.0688,0.0617 0.15876,0.1279 0.30518,0.1526 l 0.80263,0.16052 v 0.46482 z"
   id="path3193" /><g
   id="g3195"
   transform="matrix(0.88222323,0,0,0.88222323,151.40672,163.91783)">
	<path
   style="fill:#060e9f;fill-rule:evenodd"
   inkscape:connector-curvature="0"
   clip-rule="evenodd"
   d="m 13.506,58.165 c -1.553,0 -2.919,0.572 -3.972,1.646 -1.087,1.105 -1.681,2.532 -1.681,4.021 0,1.508 0.572,2.904 1.664,3.991 1.082,1.089 2.498,1.677 3.988,1.677 1.49,0 2.935,-0.588 4.055,-1.69 1.058,-1.04 1.613,-2.423 1.613,-3.978 0,-1.535 -0.556,-2.934 -1.63,-4.004 -1.085,-1.091 -2.485,-1.663 -4.037,-1.663 z m 0.017,1.025 c 1.271,0 2.408,0.482 3.293,1.367 0.868,0.868 1.333,2.02 1.333,3.275 0,1.277 -0.448,2.395 -1.316,3.251 -0.918,0.896 -2.1,1.381 -3.31,1.381 -1.227,0 -2.376,-0.485 -3.261,-1.37 -0.885,-0.884 -1.383,-2.051 -1.383,-3.262 0,-1.226 0.498,-2.391 1.383,-3.293 0.864,-0.884 1.985,-1.349 3.261,-1.349 z"
   id="path3197" />
	<path
   style="fill:#060e9f;fill-rule:evenodd"
   inkscape:connector-curvature="0"
   clip-rule="evenodd"
   d="m 13.444,62.892 c -0.316,-0.585 -0.859,-0.813 -1.498,-0.813 -0.918,0 -1.654,0.65 -1.654,1.755 0,1.127 0.688,1.759 1.691,1.759 0.634,0 1.186,-0.353 1.482,-0.883 L 12.77,64.352 c -0.161,0.375 -0.399,0.49 -0.705,0.49 -0.519,0 -0.757,-0.435 -0.757,-1.008 0,-0.573 0.201,-1.002 0.757,-1.002 0.153,0 0.457,0.08 0.635,0.457 l 0.744,-0.397 z"
   id="path3199" />
	<path
   style="fill:#060e9f;fill-rule:evenodd"
   inkscape:connector-curvature="0"
   clip-rule="evenodd"
   d="m 16.716,62.892 c -0.316,-0.585 -0.864,-0.813 -1.497,-0.813 -0.923,0 -1.659,0.65 -1.659,1.755 0,1.127 0.691,1.759 1.691,1.759 0.638,0 1.186,-0.353 1.485,-0.883 l -0.703,-0.358 c -0.152,0.375 -0.395,0.49 -0.696,0.49 -0.519,0 -0.761,-0.435 -0.761,-1.008 0,-0.573 0.202,-1.002 0.761,-1.002 0.153,0 0.453,0.08 0.626,0.457 l 0.753,-0.397 z"
   id="path3201" />
</g><path
   style="fill:#ffffff"
   inkscape:connector-curvature="0"
   d="m 163.63055,22.59249 c -0.72041,-1.45341 -1.10189,-2.96358 -4.43118,-2.75235 1.27528,1.60948 2.50327,3.27886 3.77541,4.88991 0.18443,2.48437 -1.89008,3.18428 -2.79491,2.59787 -1.4077,-0.90484 -1.36672,-2.79018 1.09558,-3.45699 -1.5149,-2.00357 -2.93048,-3.81482 -4.44222,-5.82785 0.24591,-0.17025 0.4871,-0.34207 0.73301,-0.5202 2.29363,1.1208 1.6347,0.57222 3.10073,0.81656 3.21895,0.64473 3.40969,3.19058 2.96358,4.25305"
   id="path3203" /><g
   id="g3205"
   transform="matrix(0.68474387,0,0,0.68474387,144.91246,204.6421)">
	<g
   id="g3207">
		<rect
   style="fill:#f69322"
   x="89.903999"
   y="15.466"
   width="0.84100002"
   height="1.87"
   id="rect3209" />
		<rect
   style="fill:#ef4138"
   x="89.065002"
   y="15.466"
   width="0.83899999"
   height="1.87"
   id="rect3211" />
		<rect
   style="fill:#754e2a"
   x="88.225998"
   y="15.466"
   width="0.83899999"
   height="1.87"
   id="rect3213" />
	</g>
	<polygon
   style="fill:#272660"
   points="91.07,29.062 85.793,29.062 85.793,27.889 80.309,27.889 80.309,25.841 78.829,25.841 78.831,24.831 80.3,24.831 80.246,17.336 91.704,17.336 91.684,24.831 93.208,24.831 93.208,25.841 91.649,25.841 91.657,27.889 91.07,27.889 "
   id="polygon3215" />
	<polygon
   style="fill:#6c7dbd"
   points="90.712,24.567 90.745,18.134 81.309,18.134 81.309,24.567 "
   id="polygon3217" />
	<rect
   style="fill:#d1d2d3"
   x="87.613998"
   y="29.061001"
   width="2.013"
   height="1.0089999"
   id="rect3219" />
</g><g
   id="g3221"
   transform="matrix(0.83887536,0,0,0.83887536,88.998717,4.5548877)"
   style="fill:#ffffff">
	<path
   style="fill:#ffffff"
   d="m 149.78125,192.34375 0,8.9375 8.96875,0 8.96875,0 0,-8.9375 z m 3.90625,1.53125 c 1.82338,0 3.3125,1.48537 3.3125,3.3125 0,1.82413 -1.48912,3.3125 -3.3125,3.3125 -1.82863,0 -3.3125,-1.48912 -3.3125,-3.3125 0,-1.82788 1.48312,-3.3125 3.3125,-3.3125 z m 10.125,0.0625 c 1.80539,0 3.28125,1.47362 3.28125,3.28125 0,1.80389 -1.47586,3.28125 -3.28125,3.28125 -1.80838,0 -3.25,-1.47736 -3.25,-3.28125 0,-1.80763 1.44237,-3.28125 3.25,-3.28125 z"
   transform="matrix(1.3337871,0,0,1.3337871,-152.15272,-241.08683)"
   id="rect3225"
   inkscape:connector-curvature="0"
   sodipodi:nodetypes="ccccccssssssssss" />
	
	<path
   id="path3239"
   d="m 55.97,21.908 c 0,1.729 -1.404,3.133 -3.134,3.133 -1.738,0 -3.14,-1.404 -3.14,-3.133 0,-1.735 1.402,-3.138 3.14,-3.138 1.729,0.001 3.134,1.403 3.134,3.138 z"
   inkscape:connector-curvature="0"
   style="fill:#ffffff" />
	<path
   id="path3245"
   d="m 69.455,21.956 c 0,1.713 -1.388,3.101 -3.102,3.101 -1.713,0 -3.105,-1.388 -3.105,-3.101 0,-1.716 1.393,-3.104 3.105,-3.104 1.714,0 3.102,1.388 3.102,3.104 z"
   inkscape:connector-curvature="0"
   style="fill:#ffffff" />
	
</g><g
   id="g3253"
   transform="matrix(0,-1.5940994,1.5940994,0,49.910645,341.57929)">
	<path
   style="fill:#060e9f"
   inkscape:connector-curvature="0"
   d="m 77.183,82.72 c -0.053,-1.832 -1.07,-3.502 -2.652,-4.014 l -0.205,0.605 c 1.561,0.506 2.557,2.553 2.117,4.557 -0.287,1.297 -1.107,2.285 -2.117,2.615 l 0.205,0.605 c 1.256,-0.414 2.213,-1.602 2.537,-3.086 0.091,-0.427 0.128,-0.858 0.115,-1.282 l 0,0 z"
   id="path3255" />
	<path
   style="fill:#060e9f"
   inkscape:connector-curvature="0"
   d="M 79.257,82.677 C 79.232,81.79 79.062,80.941 78.755,80.185 78.276,78.976 77.464,78.003 76.403,77.587 l -0.229,0.594 c 0.844,0.33 1.551,1.148 1.986,2.236 0.434,1.094 0.586,2.438 0.344,3.762 -0.318,1.713 -1.242,3.008 -2.33,3.428 l 0.229,0.6 c 1.377,-0.535 2.381,-2.039 2.725,-3.908 0.103,-0.546 0.141,-1.091 0.129,-1.622 l 0,0 z"
   id="path3257" />
	<path
   style="fill:#060e9f"
   inkscape:connector-curvature="0"
   d="m 74.802,82.909 c 0.061,-1.197 -0.561,-2.338 -1.615,-2.682 l -0.201,0.604 c 0.813,0.27 1.365,1.363 1.125,2.457 -0.152,0.709 -0.598,1.229 -1.125,1.4 l 0.201,0.604 c 0.779,-0.256 1.354,-0.977 1.549,-1.869 0.036,-0.172 0.06,-0.344 0.066,-0.514 l 0,0 z"
   id="path3259" />
</g></svg>